<svg xmlns="http://www.w3.org/2000/svg" width="22pt" height="22pt" viewBox="0 0 22 22">

<path d="M 17.941406 5.753906 L 11.871094 11.828125 C 11.636719 12.058594 11.328125 12.1875 11 12.1875 C 10.671875 12.1875 10.363281 12.058594 10.128906 11.828125 L 4.058594 5.753906 C 3.128906 4.828125 1.625 4.828125 0.695312 5.753906 C -0.230469 6.683594 -0.230469 8.1875 0.695312 9.117188 L 6.769531 15.1875 C 7.898438 16.320312 9.402344 16.941406 11 16.941406 C 12.597656 16.941406 14.101562 16.320312 15.230469 15.1875 L 21.304688 9.117188 C 22.230469 8.1875 22.230469 6.683594 21.304688 5.753906 C 20.375 4.828125 18.871094 4.828125 17.941406 5.753906 Z M 17.941406 5.753906 " fill="grey"/>

</svg>
