<svg xmlns="http://www.w3.org/2000/svg" width="22pt" height="22pt" viewBox="0 0 22 22">
<path d="M 17.402344 9.726562 L 8.199219 0.535156 C 7.863281 0.179688 7.4375 0 6.929688 0 C 6.421875 0 6 0.179688 5.660156 0.535156 L 4.585938 1.59375 C 4.238281 1.941406 4.066406 2.367188 4.066406 2.867188 C 4.066406 3.355469 4.238281 3.78125 4.585938 4.148438 L 11.445312 10.996094 L 4.585938 17.855469 C 4.238281 18.203125 4.066406 18.625 4.066406 19.125 C 4.066406 19.613281 4.238281 20.042969 4.585938 20.410156 L 5.660156 21.46875 C 6.007812 21.816406 6.433594 21.992188 6.929688 21.992188 C 7.429688 21.992188 7.851562 21.816406 8.199219 21.46875 L 17.402344 12.28125 C 17.75 11.914062 17.925781 11.484375 17.925781 10.996094 C 17.925781 10.496094 17.75 10.074219 17.402344 9.726562 Z M 17.402344 9.726562 " fill="grey"/>
</svg>
